# xmcd
#
# Track frame offsets: 
#        150
#        14852
#        31107
#        49025
#        68352
#        83353
#        99462
#        117666
#        133689
#        153058
#        169853
#
# Disc length: 2521 seconds
#
# Revision: 0
# Processed by: cddbd v1.5.2PL0 Copyright (c) Steve Scherf et al.
# Submitted via: ExactAudioCopy v0.99pb5
#
DISCID=8009d70b
DTITLE=Breaking Benjamin - Dear Agony
DYEAR=2009
DGENRE=Alt. Rock
TTITLE0=Fade Away
TTITLE1=I Will Not Bow
TTITLE2=Crawl
TTITLE3=Give Me a Sign
TTITLE4=Hopeless
TTITLE5=What Lies Beneath
TTITLE6=Anthem of the Angels
TTITLE7=Lights Out
TTITLE8=Dear Agony
TTITLE9=Into the Nothing
TTITLE10=Without You
EXTD=
EXTT0=
EXTT1=
EXTT2=
EXTT3=
EXTT4=
EXTT5=
EXTT6=
EXTT7=
EXTT8=
EXTT9=
EXTT10=
PLAYORDER=
